# xmcd CD database file
#
# Track frame offsets:
#	150
#	23065
#	43387
#	65750
#	82705
#	100630
#	120423
#	141593
#	157625
#	177873
#	201200
#	219735
#	244098
#	264008
#	278307
#	291520
#
# Disc length: 4141 seconds
#
# Revision: 0
# Processed by: cddbd v1.5.1PL0 Copyright (c) Steve Scherf et al.
# Submitted via: CDex 1.51
#
DISCID=db102b10
DTITLE=スピッツ - スピッツベスト
DYEAR=1900
DGENRE=ポップ (一般)
TTITLE0=君が思い出になる前に
TTITLE1=空も飛べるはず
TTITLE2=青い車
TTITLE3=スパイダー
TTITLE4=涙がキラリ☆
TTITLE5=チェリー
TTITLE6=渚
TTITLE7=スカーレット
TTITLE8=夢じゃない
TTITLE9=運命の人
TTITLE10=冷たい頬
TTITLE11=楓
TTITLE12=す
TTITLE13=ぴ
TTITLE14=っ
TTITLE15=つ
EXTD=
EXTT0=
EXTT1=
EXTT2=
EXTT3=
EXTT4=
EXTT5=
EXTT6=
EXTT7=
EXTT8=
EXTT9=
EXTT10=
EXTT11=
EXTT12=
EXTT13=
EXTT14=
EXTT15=
PLAYORDER=
